<svg id="Layer_1" data-name="Layer 1" xmlns="http://www.w3.org/2000/svg" viewBox="0 0 400 300"><path d="M263.55,108.25s28.81,7.61,34.8-17.78S277.53,46,259,49.67s-4.26,50.26-41.79,62.65c0,0-28.39,23.57-46.37,17s.29-57.66-22.82-63.37-31.67-3.14-31.67-3.14" fill="none" stroke="#e6e6e6" stroke-linecap="round" stroke-linejoin="round" stroke-width="2" stroke-dasharray="3 10"/><rect x="180.06" y="86.6" width="64.74" height="97.69" transform="translate(31.25 -39.61) rotate(11.49)" fill="#c1c1c1"/><rect x="181.31" y="80.45" width="64.74" height="97.69" transform="translate(30.05 -39.98) rotate(11.49)" fill="#e6e6e6"/><rect x="187.41" y="87.91" width="55.03" height="70.56" transform="translate(28.86 -40.35) rotate(11.49)" fill="#fff"/><rect x="197.96" y="129.63" width="28.99" height="12.04" transform="translate(31.29 -39.61) rotate(11.49)" fill="#24285b"/><polygon points="220.65 257.51 220.65 209.58 268.58 205.3 277.14 257.51 220.65 257.51" fill="#eca400"/><path d="M211.74,185.14l11.9,16.74v7.44l41.93-3.75-2.13-20.43s5.14-24.34-1.28-40.18a55.62,55.62,0,0,1-3.72-23.08c.32-7.25-10.09-8.91-12-1.9-.79,3-1.34,9-1.28,15.08a17.59,17.59,0,0,1-1.58,7.43c-2.55,5.66-6.83,16.77-4.26,23l-4.94,24.28Z" fill="#f4a28c"/><circle cx="206.45" cy="167.16" r="4.94" fill="#fff" opacity="0.42"/><polygon points="234.42 189.75 238.66 207.97 223.64 209.32 223.64 201.88 211.74 185.14 234.42 189.75" opacity="0.09"/><path d="M163.49,211.94l4.57-10.49s8-4,17.41-8S199.26,183,198,178.06s-10.56-10.9-10.56-10.9,18.28-26.41,19-31.72-3.87-7.31-9.86-3.6-17.69,17.69-17.69,17.69-20-9.42-27.67-2.86-10.16,27.64-21.09,45.82Z" fill="#f4a28c"/><polygon points="127.04 190.68 168.33 208.75 153.2 258.9 95.02 257.51 127.04 190.68" fill="#eca400"/><rect x="203.5" y="102.95" width="27.4" height="18.72" transform="translate(26.1 -40.23) rotate(11.26)" fill="#ffd200"/><rect x="203.5" y="102.95" width="27.4" height="18.72" transform="translate(26.1 -40.23) rotate(11.26)" fill="#fff" opacity="0.72"/><polygon points="205.59 100.46 216.45 116.04 232.46 105.81 205.59 100.46" fill="#ffd200"/><polygon points="120.61 51.03 84.23 43.1 109.48 71.35 120.61 51.03" fill="#ffd200"/><polygon points="117.44 56.82 118.07 67.19 112.97 64.97 117.44 56.82" fill="#ffd200"/><polygon points="117.44 56.82 118.07 67.19 112.97 64.97 117.44 56.82" opacity="0.09"/><polygon points="84.23 43.1 117.44 56.82 113.75 63.55 84.23 43.1" opacity="0.09"/></svg>